<svg width="18" height="18" viewBox="0 0 18 18" fill="none" xmlns="http://www.w3.org/2000/svg">
<circle cx="9" cy="9" r="9" fill="#F2443C"/>
<path d="M10.5625 12.6875C10.5625 11.8281 9.85938 11.125 9 11.125C8.12109 11.125 7.4375 11.8281 7.4375 12.6875C7.4375 13.5664 8.12109 14.25 9 14.25C9.85938 14.25 10.5625 13.5664 10.5625 12.6875ZM7.61328 4.75781L7.86719 10.0703C7.88672 10.3047 8.10156 10.5 8.33594 10.5H9.64453C9.87891 10.5 10.0938 10.3047 10.1133 10.0703L10.3672 4.75781C10.3867 4.48438 10.1719 4.25 9.89844 4.25H8.08203C7.80859 4.25 7.59375 4.48438 7.61328 4.75781Z" fill="white"/>
</svg>
